<svg width="33" height="33" viewBox="0 0 33 33" fill="none" xmlns="http://www.w3.org/2000/svg">
<g clip-path="url(#clip0_1078_4357)">
<path d="M24.0631 0C19.1352 0 15.1257 4.00944 15.1257 8.93758C15.1257 13.8655 19.1352 17.8749 24.0631 17.8749C28.9912 17.8749 33.0006 13.8655 33.0006 8.93758C33.0006 4.00944 28.9912 0 24.0631 0ZM25.4382 12.0313C25.4382 12.6006 24.9762 13.0626 24.407 13.0626C23.8377 13.0626 23.3757 12.6006 23.3757 12.0313V7.56241H22.6881C22.1189 7.56241 21.6569 7.10041 21.6569 6.53116C21.6569 5.96191 22.1189 5.49991 22.6881 5.49991H24.407C24.9762 5.49991 25.4382 5.96191 25.4382 6.53116V12.0313Z" fill="#F44336"/>
<path d="M19.2501 27.5002C19.2501 30.5378 16.7875 33.0001 13.7499 33.0001C10.7123 33.0001 8.25 30.5378 8.25 27.5002C8.25 24.4626 10.7123 22 13.7499 22C16.7875 22 19.2501 24.4626 19.2501 27.5002Z" fill="#FFA000"/>
<path d="M24.5025 20.603C24.3555 20.6083 24.211 20.6249 24.0624 20.6249C17.6179 20.6249 12.375 15.382 12.375 8.9375C12.375 6.67281 13.0336 4.56352 14.153 2.77062C14.018 2.76508 13.8862 2.75 13.7499 2.75C8.44259 2.75 4.125 7.06733 4.125 12.3749V16.2084C4.125 18.9295 2.93288 21.4981 0.841437 23.2662C0.5773 23.4918 0.365272 23.772 0.219997 24.0875C0.0747217 24.403 -0.000338325 24.7462 1.14636e-06 25.0936C1.14636e-06 26.4207 1.07933 27.5 2.40617 27.5H25.0937C26.4208 27.5 27.5001 26.4207 27.5001 25.0936C27.5001 24.3896 27.1934 23.7227 26.6448 23.2539C25.7579 22.5031 25.0428 21.5985 24.5025 20.603Z" fill="#FFC107"/>
</g>
<defs>
<clipPath id="clip0_1078_4357">
<rect width="33" height="33" fill="white"/>
</clipPath>
</defs>
</svg>
