<svg width="119" height="242" viewBox="0 0 119 242" fill="none" xmlns="http://www.w3.org/2000/svg">
<path d="M101.6 75.1406C101.43 77.2906 101.26 79.4406 101.09 81.5906C100.11 81.6606 98.8998 81.8306 97.5498 82.2206C96.3398 82.5706 95.3298 83.0106 94.5198 83.4206C92.7698 82.0706 91.0198 80.7206 89.2698 79.3706C89.9898 81.2906 90.6998 83.2106 91.4198 85.1206C90.5398 85.3106 89.2998 85.6906 88.0098 86.5106C85.5898 88.0506 84.4598 90.2006 84.0298 91.1906C85.6798 89.7306 91.7398 84.7306 100.34 84.9306C101.48 84.9606 105.74 85.1506 110.52 87.5906C114 89.3706 116.36 91.6306 117.79 93.2506V78.5106C113.6 78.8806 109.4 79.2606 105.21 79.6306C104 78.1306 102.8 76.6406 101.6 75.1406Z" fill="#FDB637"/>
<path d="M37.8799 141.05C44.3099 138.95 49.9499 137.61 54.3199 136.73C58.4199 135.61 63.6599 133.58 68.8599 129.75C72.0399 127.41 75.2899 125.02 77.7699 120.57C81.3399 114.16 80.8999 107.83 80.6799 105.17C80.3199 100.83 79.0699 97.4098 78.0899 95.2398C74.5899 98.8898 71.0899 102.53 67.5999 106.18C65.5999 105.32 63.5999 104.46 61.5899 103.6C62.9799 105.44 64.3699 107.29 65.7599 109.13C64.2199 111.27 62.6799 113.41 61.1499 115.54C59.0399 114.76 56.9399 113.99 54.8299 113.21C56.5199 115.08 58.2 116.94 59.89 118.81C58.63 120.53 56.7799 123.56 55.9099 127.74C55.3499 130.45 55.3699 132.8 55.5299 134.53C54.1799 132.38 49.8399 124.89 51.6099 115.67C52.5899 110.58 55.0199 107.12 55.6599 106.24C58.9599 101.72 63.1099 99.5299 65.3299 98.5699C68.1899 97.3399 70.77 96.9098 72.5399 96.7498C71.5299 96.4498 69.9399 96.1198 67.9899 96.2498C65.7599 96.3998 64.0599 97.0799 63.0599 97.5699C61.9899 96.0199 60.9099 94.4699 59.8399 92.9199C59.9699 95.0999 60.0899 97.2798 60.2199 99.4598C59.3699 99.4798 58.2999 99.5798 57.1199 99.8998C54.9799 100.48 53.4399 101.49 52.5099 102.23C51.3299 100.45 50.1499 98.6699 48.9699 96.8899C49.3099 99.2199 49.6399 101.54 49.9799 103.87C47.3999 105.21 44.4299 107.04 41.3799 109.53C39.7199 110.89 38.2699 112.25 37.0199 113.55C37.1799 111.92 38.5599 99.5598 48.8399 93.4298C55.2899 89.5898 62.1399 90.0499 64.7099 90.2198C70.5299 90.6098 74.9699 92.5798 77.4799 93.9298C76.27 92.6298 74.6599 91.1198 72.6099 89.6498C70.2599 87.9798 68.0299 86.8699 66.2199 86.1299C66.4099 83.6999 66.5999 81.2698 66.7899 78.8398C65.9299 80.0098 65.06 81.1899 64.2 82.3599C63.5 82.6599 62.3299 83.0599 60.8499 83.0499C58.3899 83.0299 56.63 81.8899 55.9799 81.4199C55.8499 79.1399 55.7299 76.8499 55.5999 74.5699C54.5499 76.1199 53.4899 77.6698 52.4399 79.2198C50.2199 79.3398 47.7599 79.3598 45.1099 79.2198C41.8099 79.0398 38.82 78.6398 36.2 78.1498C37.7299 76.8298 45.4199 70.4599 55.8599 71.5499C57.7399 71.7499 62.9699 72.3599 67.9299 76.3299C71.3599 79.0699 73.1799 82.2298 74.0599 84.0598C73.5199 82.5898 70.6099 74.1899 75.0699 65.6399C78.5699 58.9199 84.5399 56.1299 86.3199 55.3299C90.9099 53.2599 95.0899 53.1098 97.3799 53.1898C95.7799 54.4899 93.99 56.1498 92.2 58.2198C89.9399 60.8398 88.31 63.3799 87.14 65.5099C84.67 65.4099 82.2099 65.2999 79.7399 65.1999C81.5099 66.0199 83.2799 66.8298 85.0499 67.6498C84.8699 68.9298 84.6099 70.3499 84.2299 71.8599C83.8299 73.4199 83.3699 74.8299 82.8999 76.0699C80.5599 76.1299 78.2199 76.1999 75.8799 76.2599C77.7099 77.1199 79.5499 77.9798 81.3799 78.8398C80.6199 81.3698 79.92 84.3199 79.4799 87.6399C79.2299 89.5099 79.0999 91.2799 79.0399 92.9199C80.7099 88.8099 84.4299 81.0699 91.2999 75.6299C95.0499 72.6699 97.6799 72.0199 98.8199 71.7899C102.1 71.1599 104.99 71.8099 107.73 72.4199C110.63 73.0699 112.84 73.9998 113.99 74.4898C115.47 75.1198 116.74 75.7798 117.78 76.3698V71.9799C117.78 59.0599 107.25 48.5898 94.2599 48.5898H23.9599C10.9699 48.5898 0.439941 59.0599 0.439941 71.9799V160.23C6.29994 155.83 11.7599 152.52 16.2899 150.1C17.9999 149.2 26.1599 144.87 37.8799 141.05Z" fill="#2F604A"/>
<path d="M111.84 90.4402C111.26 90.4002 110.48 90.4402 109.56 90.7602C108.36 91.8602 107.16 92.9502 105.96 94.0502C106.51 92.8902 107.06 91.7302 107.6 90.5702C107.62 89.5602 107.64 88.5502 107.66 87.5402C106.48 87.5402 105.3 87.5402 104.12 87.5402C102.24 87.5002 100.37 87.4602 98.4902 87.4102C98.5102 88.9302 98.5302 90.4401 98.5502 91.9601C100 92.3401 101.46 92.7202 102.91 93.1002C102.91 93.6902 102.91 94.2801 102.91 94.8701C105.45 95.5801 107.54 96.3301 109.11 96.9601C110.93 97.6801 112.66 98.3801 114.8 99.6201C115.98 100.3 116.97 100.97 117.77 101.55V94.9102C116.91 93.3902 114.91 90.6502 111.84 90.4402Z" fill="#FDB637"/>
<path d="M107.5 187.16C105.07 185.72 102.56 184.25 98.8998 183.76C96.9298 183.5 93.8698 183.1 90.8098 184.58C88.2698 185.8 88.2398 187.11 84.6798 189.11C82.2598 190.47 80.2298 191.01 79.8098 191.12C78.6198 191.43 75.1798 192.21 70.8998 191.31C68.5798 190.82 66.9198 190.04 66.0298 189.61C62.9298 188.12 62.9398 187.27 59.8998 185.65C58.3098 184.8 56.0398 183.62 52.8798 183.32C51.8898 183.23 49.7498 183.05 47.2498 183.82C44.3098 184.73 43.8598 186.05 40.4198 188.1C38.8998 189 36.2798 190.56 32.7098 191.18C28.4598 191.91 25.0198 190.95 23.4198 190.49C21.6698 189.98 19.0498 189.22 16.3998 187.16C14.2998 185.53 13.4898 184.09 11.0898 183.39C9.85977 183.03 8.81977 183.05 7.83977 183.11C7.69977 183.12 7.55977 183.13 7.41977 183.14C7.02977 183.17 6.55977 183.22 6.00977 183.31C6.46977 184.18 6.96978 185.03 7.51978 185.83C11.7598 191.94 18.8498 195.96 26.8798 195.96H97.1798C102.9 195.96 108.13 193.93 112.21 190.56C110.88 189.4 109.33 188.23 107.5 187.16Z" fill="#FDB637"/>
<path d="M28.7501 208.17H21.1301C18.7401 208.17 16.8101 206.23 16.8101 203.85V198.33H33.08V203.85C33.07 206.23 31.1401 208.17 28.7501 208.17Z" fill="#FDB637"/>
<path d="M97.5298 208.17H89.9099C87.5199 208.17 85.5898 206.23 85.5898 203.85V198.33H101.86V203.85C101.85 206.23 99.9198 208.17 97.5298 208.17Z" fill="#FDB637"/>
<path d="M44.7499 98.7002C43.8299 99.5302 42.7299 100.7 41.7399 102.26C39.9799 105.02 39.3799 107.69 39.1499 109.34C40.2499 108.13 41.6599 106.75 43.4299 105.4C45.0399 104.17 46.5899 103.23 47.9399 102.51C46.8699 101.24 45.8099 99.9702 44.7499 98.7002Z" fill="#FDB637"/>
<path d="M39.23 76.4898C40.29 75.5098 42.2 74.0098 44.96 73.0298C48.39 71.8198 51.37 72.0498 52.88 72.2698C52.09 73.9698 51.31 75.6698 50.52 77.3698C48.96 77.0298 47.18 76.7398 45.21 76.5698C42.99 76.3798 40.98 76.3898 39.23 76.4898Z" fill="#FDB637"/>
<path d="M83.2701 67.3006C82.4401 69.2006 81.6101 71.0906 80.7701 72.9906C79.3101 72.6006 77.8401 72.2106 76.3801 71.8206C76.2701 70.3206 76.1701 68.8306 76.0601 67.3306C77.2101 67.0906 78.3601 66.8506 79.5101 66.6006C80.7601 66.8406 82.01 67.0706 83.2701 67.3006Z" fill="#FDB637"/>
<path d="M66.82 6.36002H52.21C51.28 6.36002 50.52 5.60001 50.52 4.67001V1.69C50.52 0.760002 51.28 0 52.21 0H66.82C67.75 0 68.51 0.760002 68.51 1.69V4.67001C68.51 5.60001 67.76 6.36002 66.82 6.36002Z" fill="#2F604A"/>
<path d="M49.6501 4.21002L49.6401 4.17004C49.3801 2.92004 48.0001 2.30005 46.8701 2.89005C46.0101 3.35005 45.0701 3.99002 44.1701 4.90002C42.5201 6.58002 41.7401 8.46003 41.3501 9.94003C41.3401 9.97003 41.3301 9.99002 41.3301 10.02V12.26V48.55H44.9501V9.95004C45.2301 9.30004 45.6601 8.60003 46.3201 7.97003C46.9701 7.35003 47.6701 6.96002 48.2901 6.71002C49.2901 6.30002 49.8601 5.26002 49.6501 4.21002Z" fill="#2F604A"/>
<path d="M69.3901 4.21002L69.4001 4.17004C69.6601 2.92004 71.0401 2.30005 72.1701 2.89005C73.0301 3.35005 73.9701 3.99002 74.8701 4.90002C76.5201 6.58002 77.3001 8.46003 77.6901 9.94003C77.7001 9.97003 77.7101 9.99002 77.7101 10.02V12.26V48.55H74.0901V9.95004C73.8101 9.30004 73.3801 8.60003 72.7201 7.97003C72.0701 7.35003 71.3701 6.96002 70.7501 6.71002C69.7401 6.30002 69.1701 5.26002 69.3901 4.21002Z" fill="#2F604A"/>
<path d="M81.9501 156.71C81.9501 150.14 87.29 144.8 93.86 144.8H117.78V102.83C116.25 101.74 114.45 100.61 112.34 99.5398C109.3 97.9998 106.47 97.0198 104.12 96.3798C102.01 95.8698 99.91 95.3698 97.8 94.8598C97.3801 93.0098 96.9601 91.1498 96.5401 89.2998C95.6101 90.8998 94.6901 92.4998 93.7601 94.0998C89.2901 94.1798 84.83 94.2698 80.36 94.3498C81.88 96.4698 84.0001 99.9698 85.2901 104.72C85.8501 106.79 87.12 111.69 86.05 117.87C84.8 125.07 81.1001 129.78 79.1801 132.16C75.3601 136.91 71.2901 139.43 67.3 141.85C62.91 144.52 60.4701 145.28 53.3901 148.26C43.7101 152.33 38.86 154.37 33.33 157.45C31.03 158.73 25.4001 162.45 14.1401 169.9C13.9501 170.03 13.1401 170.56 12.0601 171.39C12.4101 171.53 12.6701 171.64 12.7801 171.69C16.2301 173.24 16.2201 174.52 19.5401 176.24C20.7601 176.87 23.2301 178.12 26.5601 178.14C28.3401 178.15 29.7601 177.8 30.5401 177.57C32.2501 177.06 33.2901 176.39 35.3401 175.1C39.1001 172.74 40.9701 171.56 41.4101 171.37C45.2001 169.68 48.4201 169.71 49.1901 169.73C50.9801 169.78 52.3901 170.11 53.1701 170.3C54.0801 170.52 55.8001 171 58.1601 172.2C61.7301 174.01 61.4101 174.74 64.2901 176.18C65.7701 176.92 68.3301 178.18 71.7501 178.14C74.4901 178.11 76.5501 177.27 77.5001 176.88C79.2901 176.13 79.74 175.58 82.11 174.04C85.58 171.79 87.7701 170.37 90.83 169.68C91.8801 169.44 94.3801 168.9 97.4001 169.55C98.7001 169.83 99.8701 170.37 102.2 171.45C104.7 172.61 106.53 173.69 108.08 174.61C108.08 174.61 109.68 175.58 111.3 176.7C112.92 177.81 114.62 179.13 116.21 180.44C117.19 177.85 117.75 175.06 117.75 172.13V168.63H93.83C87.3 168.62 81.9501 163.27 81.9501 156.71Z" fill="#FDB637"/>
<path d="M114.42 155.311C113.78 155.311 113.15 155.291 112.51 155.311C111.19 155.351 110.08 156.511 110.06 157.841C110.04 159.171 111.17 160.451 112.47 160.491C113.78 160.531 115.1 160.501 116.41 160.511C116.71 160.511 116.85 160.421 116.88 160.091C117.03 158.621 117.03 157.141 116.88 155.671C116.85 155.371 116.72 155.291 116.45 155.301C115.77 155.321 115.1 155.311 114.42 155.311ZM113.19 159.711C112.26 159.711 111.51 158.961 111.51 158.031C111.51 157.101 112.26 156.351 113.19 156.351C114.12 156.351 114.87 157.101 114.87 158.031C114.86 158.961 114.11 159.711 113.19 159.711Z" fill="#FDB637"/>
<path d="M90.1901 163.12C89.7601 163.13 89.35 163.53 89.36 163.95C89.37 164.43 89.7501 164.81 90.2201 164.82C90.6401 164.82 91.04 164.42 91.05 163.99C91.06 163.54 90.6301 163.11 90.1901 163.12Z" fill="#FDB637"/>
<path d="M102.1 149.22C101.14 149.3 100.18 149.43 99.0802 149.75C104.49 149.5 107.89 153.67 107.94 157.81C107.99 162.01 104.3 166.46 98.9302 166.02C99.1602 166.08 99.3902 166.14 99.6302 166.19C102.09 166.7 104.56 166.82 107.05 166.54C109.88 166.23 112.57 165.48 115 163.93C115.22 163.79 115.46 163.69 115.51 163.36C115.6 162.77 115.72 162.19 115.85 161.61C115.93 161.23 115.82 161.1 115.42 161.11C114.5 161.14 113.57 161.13 112.64 161.12C110.85 161.09 109.44 159.69 109.42 157.96C109.41 156.12 110.77 154.69 112.6 154.63C113.15 154.61 113.71 154.62 114.27 154.62C115.96 154.63 115.97 154.63 115.61 152.97C115.55 152.68 115.6 152.32 115.34 152.12C114.9 151.79 114.46 151.47 113.96 151.22C110.22 149.35 106.23 148.87 102.1 149.22Z" fill="#FDB637"/>
<path d="M107.27 156.951C106.67 152.371 102.32 149.261 97.9598 150.401C96.4798 150.791 95.0198 150.911 93.5198 150.891C92.2698 150.881 91.0098 150.881 89.7598 150.891C89.2298 150.891 88.8998 151.181 88.8498 151.711C88.7998 152.191 89.1998 152.561 89.7498 152.601C89.9298 152.611 90.1198 152.611 90.3098 152.611C91.3198 152.611 92.3298 152.611 93.3298 152.611C93.7398 152.611 93.8398 152.701 93.6098 153.111C93.2498 153.731 92.7798 154.001 92.0598 153.971C90.6198 153.931 89.1798 153.951 87.7398 153.961C87.0698 153.961 86.7898 154.271 86.8398 154.921C86.8898 155.501 87.2998 155.661 87.7898 155.661C89.0398 155.671 90.2998 155.661 91.5498 155.671C91.8098 155.671 92.2298 155.591 92.1298 156.061C92.0498 156.421 92.2098 157.011 91.4998 156.971C91.1698 156.951 90.8398 156.961 90.5198 157.031C90.0898 157.111 89.8298 157.411 89.8498 157.861C89.8698 158.291 90.0998 158.611 90.5398 158.681C90.8398 158.731 91.1498 158.721 91.4598 158.741C91.9598 158.761 92.1698 159.041 92.1398 159.671C92.1198 160.141 91.7598 160.021 91.4998 160.031C89.8498 160.041 88.2098 160.031 86.5598 160.041C85.6898 160.041 85.3398 160.301 85.3498 160.911C85.3598 161.511 85.6898 161.751 86.5198 161.751C87.4898 161.751 88.4498 161.751 89.4198 161.751C90.4698 161.751 91.5198 161.751 92.5698 161.751C92.8998 161.751 93.8098 162.601 93.6998 162.871C93.5098 163.391 93.0598 163.201 92.6698 163.111C92.5498 163.081 92.4198 163.101 92.2998 163.111C91.7098 163.141 91.3798 163.451 91.3998 163.981C91.4198 164.551 91.7698 164.771 92.2898 164.771C93.0498 164.771 93.8098 164.791 94.5698 164.771C95.5098 164.741 96.3998 164.831 97.2898 165.191C98.0398 165.491 98.8498 165.571 99.6498 165.581C104.2 165.621 107.86 161.471 107.27 156.951ZM99.3898 161.421C99.3298 161.461 99.2698 161.491 99.2198 161.521C99.1598 161.551 99.0998 161.581 99.0498 161.601C98.9898 161.621 98.9198 161.641 98.8698 161.661C98.8098 161.681 98.7498 161.691 98.6998 161.711C98.6298 161.721 98.5698 161.731 98.5198 161.741C98.4598 161.751 98.3998 161.751 98.3498 161.761C98.3198 161.761 98.2898 161.761 98.2598 161.761C98.2298 161.761 98.1998 161.761 98.1698 161.771C98.1398 161.771 98.1098 161.771 98.0798 161.771C98.0498 161.771 98.0198 161.771 97.9898 161.771H97.5598C97.2598 161.771 96.9898 161.731 96.7498 161.651C96.5098 161.571 96.3098 161.451 96.1398 161.291C95.9598 161.121 95.8098 160.951 95.6898 160.771C95.5698 160.591 95.4798 160.401 95.4098 160.201C95.3798 160.131 95.3598 160.071 95.3398 160.001C95.3298 159.931 95.3098 159.861 95.2998 159.791C95.2898 159.721 95.2898 159.661 95.2798 159.601C95.2698 159.541 95.2698 159.471 95.2698 159.411V154.041H95.6998H96.8098V158.881C96.8098 159.191 96.8298 159.461 96.8798 159.691C96.9198 159.921 96.9898 160.121 97.0698 160.281C97.1498 160.421 97.2598 160.521 97.3998 160.601C97.5398 160.681 97.7198 160.731 97.9298 160.751C98.0498 160.741 98.1498 160.711 98.2398 160.671C98.3298 160.631 98.4198 160.591 98.4898 160.531C98.5898 160.451 98.6698 160.371 98.7398 160.291C98.8098 160.211 98.8598 160.121 98.8998 160.031C98.9098 160.011 98.9198 159.991 98.9198 159.971C98.9298 159.951 98.9298 159.931 98.9398 159.901C98.9498 159.891 98.9498 159.871 98.9598 159.851C98.9598 159.831 98.9698 159.811 98.9798 159.791C98.9998 159.751 98.9998 159.721 99.0098 159.681C99.0098 159.641 99.0098 159.611 99.0098 159.581V154.031H99.4398H100.54V159.551C100.54 159.721 100.56 159.861 100.6 159.981C100.64 160.101 100.7 160.201 100.78 160.291C100.86 160.381 100.95 160.451 101.04 160.511C101.13 160.571 101.23 160.611 101.32 160.651C101.35 160.661 101.38 160.671 101.4 160.681C101.43 160.691 101.45 160.701 101.48 160.711C101.5 160.721 101.53 160.721 101.55 160.731C101.58 160.741 101.6 160.741 101.63 160.751C101.64 160.751 101.64 160.751 101.65 160.751C101.66 160.751 101.66 160.751 101.67 160.751C101.68 160.761 101.68 160.761 101.69 160.761C101.73 160.761 101.76 160.751 101.79 160.741C101.82 160.731 101.86 160.721 101.89 160.711C101.99 160.681 102.09 160.641 102.19 160.581C102.29 160.521 102.38 160.441 102.48 160.351C102.57 160.261 102.63 160.141 102.68 160.001C102.73 159.861 102.75 159.691 102.75 159.501V154.041H103.18H104.29V159.651C104.29 159.941 104.25 160.191 104.18 160.401C104.1 160.611 103.99 160.791 103.84 160.941C103.69 161.091 103.53 161.221 103.36 161.321C103.2 161.421 103.02 161.511 102.83 161.561C102.79 161.571 102.76 161.571 102.72 161.581C102.68 161.591 102.65 161.591 102.61 161.601C102.57 161.611 102.53 161.611 102.49 161.621C102.45 161.631 102.42 161.631 102.38 161.641C102.31 161.651 102.24 161.661 102.17 161.671C102.1 161.671 102.04 161.681 101.98 161.681H101.93L101.89 161.691H101.46H101.41H101.37C101.17 161.691 100.99 161.671 100.83 161.641C100.67 161.611 100.53 161.561 100.4 161.491C100.27 161.421 100.16 161.341 100.06 161.261C99.9598 161.181 99.8798 161.101 99.8198 161.011C99.7598 161.091 99.6898 161.161 99.6198 161.231C99.5298 161.321 99.4598 161.371 99.3898 161.421Z" fill="#FDB637"/>
<path d="M96.69 149.97C100.65 148.53 104.69 148.32 108.82 149.02C110.16 149.25 111.43 149.71 112.73 150.08C112.78 150.09 112.82 150.1 112.87 150.11C112.86 150.06 112.85 150.02 112.84 149.97C111.71 147.95 109.98 146.82 107.69 146.69C105.37 146.56 103.12 147.07 100.92 147.77C99.2 148.32 97.55 149.04 96.02 150.09C96.3 150.21 96.49 150.04 96.69 149.97Z" fill="#FDB637"/>
<path d="M89.4302 157.86C89.4302 157.41 89.0002 156.98 88.5602 156.99C88.1102 157 87.7102 157.43 87.7302 157.89C87.7602 158.41 88.0802 158.67 88.5602 158.71C89.0202 158.75 89.4302 158.32 89.4302 157.86Z" fill="#FDB637"/>
<path d="M93.7798 167.17C88.1598 167.17 83.5898 162.6 83.5898 156.98V156.43C83.5898 150.81 88.1598 146.24 93.7798 146.24H117.79V146.13H93.8698C88.0398 146.13 83.2998 150.87 83.2998 156.7C83.2998 162.53 88.0398 167.27 93.8698 167.27H117.79V167.16H93.7798V167.17Z" fill="#FDB637"/>
<path d="M100.04 161.28C100.14 161.36 100.25 161.43 100.38 161.51C100.5 161.57 100.64 161.62 100.81 161.66C100.97 161.69 101.15 161.71 101.35 161.71H101.39H101.44H101.87L101.91 161.7H101.96C102.02 161.7 102.08 161.7 102.15 161.69C102.22 161.69 102.29 161.68 102.36 161.66C102.4 161.65 102.43 161.65 102.47 161.64C102.51 161.63 102.55 161.63 102.59 161.62C102.63 161.61 102.66 161.61 102.7 161.6C102.74 161.59 102.77 161.59 102.81 161.58C103 161.52 103.17 161.44 103.34 161.34C103.51 161.24 103.66 161.11 103.82 160.96C103.97 160.81 104.08 160.63 104.16 160.42C104.24 160.21 104.27 159.96 104.27 159.67V154.06H103.16H102.73V159.52C102.73 159.71 102.71 159.88 102.66 160.02C102.61 160.16 102.55 160.28 102.46 160.37C102.37 160.46 102.27 160.54 102.17 160.6C102.07 160.66 101.97 160.71 101.87 160.73C101.83 160.74 101.8 160.75 101.77 160.76C101.74 160.77 101.7 160.78 101.67 160.78C101.66 160.78 101.65 160.78 101.65 160.77C101.64 160.77 101.64 160.77 101.63 160.77C101.62 160.77 101.62 160.77 101.61 160.77C101.58 160.76 101.55 160.76 101.53 160.75C101.51 160.74 101.48 160.74 101.46 160.73C101.43 160.72 101.4 160.71 101.38 160.7C101.36 160.69 101.33 160.68 101.3 160.67C101.21 160.63 101.11 160.59 101.02 160.53C100.93 160.47 100.84 160.4 100.76 160.31C100.68 160.22 100.62 160.12 100.58 160C100.54 159.88 100.52 159.74 100.52 159.57V154.05H99.4198H98.9998V159.6C98.9998 159.63 98.9998 159.66 98.9998 159.7C98.9998 159.74 98.9898 159.78 98.9698 159.81C98.9598 159.83 98.9598 159.85 98.9498 159.87C98.9498 159.89 98.9397 159.91 98.9297 159.92C98.9197 159.94 98.9198 159.96 98.9098 159.99C98.8998 160.01 98.8898 160.03 98.8898 160.05C98.8498 160.14 98.7898 160.23 98.7298 160.31C98.6598 160.39 98.5798 160.47 98.4798 160.55C98.4098 160.61 98.3298 160.65 98.2298 160.69C98.1398 160.73 98.0298 160.75 97.9198 160.77C97.7098 160.75 97.5298 160.7 97.3898 160.62C97.2498 160.54 97.1398 160.43 97.0598 160.3C96.9698 160.13 96.9098 159.94 96.8698 159.71C96.8298 159.48 96.7997 159.21 96.7997 158.9V154.06H95.6898H95.2598V159.43C95.2598 159.5 95.2597 159.56 95.2697 159.62C95.2797 159.69 95.2798 159.75 95.2898 159.81C95.2998 159.88 95.3197 159.95 95.3297 160.02C95.3497 160.09 95.3697 160.15 95.3997 160.22C95.4697 160.42 95.5597 160.61 95.6797 160.79C95.7997 160.97 95.9498 161.14 96.1298 161.31C96.2998 161.47 96.5097 161.59 96.7397 161.67C96.9797 161.75 97.2497 161.79 97.5497 161.79H97.9798C98.0098 161.79 98.0398 161.79 98.0698 161.79C98.0998 161.79 98.1298 161.79 98.1598 161.79C98.1898 161.78 98.2198 161.78 98.2498 161.78C98.2798 161.78 98.3098 161.78 98.3398 161.78C98.3998 161.77 98.4598 161.77 98.5098 161.76C98.5698 161.75 98.6298 161.74 98.6898 161.73C98.7498 161.72 98.7997 161.7 98.8597 161.68C98.9197 161.66 98.9798 161.64 99.0398 161.62C99.0998 161.6 99.1597 161.57 99.2097 161.54C99.2697 161.51 99.3298 161.47 99.3798 161.44C99.4498 161.39 99.5198 161.33 99.5898 161.27C99.6598 161.21 99.7198 161.13 99.7898 161.05C99.8598 161.12 99.9398 161.21 100.04 161.28Z" fill="#2F604A"/>
<path d="M83.5898 156.43V156.98C83.5898 162.6 88.1598 167.17 93.7798 167.17H117.79V146.24H93.7798C88.1598 146.24 83.5898 150.82 83.5898 156.43ZM90.2198 164.81C89.7498 164.81 89.3598 164.42 89.3598 163.94C89.3498 163.53 89.7599 163.12 90.1898 163.11C90.6398 163.1 91.0698 163.53 91.0598 163.97C91.0398 164.41 90.6298 164.82 90.2198 164.81ZM94.5798 164.77C93.8198 164.8 93.0598 164.78 92.2998 164.77C91.7698 164.77 91.4299 164.54 91.4099 163.98C91.3899 163.46 91.7298 163.14 92.3098 163.11C92.4298 163.1 92.5598 163.09 92.6798 163.11C93.0698 163.2 93.5198 163.38 93.7098 162.87C93.8098 162.6 92.9098 161.75 92.5798 161.75C91.5298 161.74 90.4798 161.75 89.4298 161.75C88.4598 161.75 87.4998 161.75 86.5298 161.75C85.6998 161.75 85.3698 161.51 85.3598 160.91C85.3498 160.29 85.6999 160.04 86.5699 160.04C88.2199 160.04 89.8599 160.04 91.5099 160.03C91.7699 160.03 92.1298 160.14 92.1498 159.67C92.1698 159.04 91.9698 158.76 91.4698 158.74C91.1598 158.73 90.8498 158.74 90.5498 158.68C90.1098 158.6 89.8698 158.29 89.8598 157.86C89.8398 157.41 90.0998 157.11 90.5298 157.03C90.8498 156.97 91.1799 156.95 91.5099 156.97C92.2199 157.01 92.0699 156.42 92.1399 156.06C92.2399 155.59 91.8198 155.67 91.5598 155.67C90.3098 155.66 89.0498 155.67 87.7998 155.66C87.3098 155.66 86.8999 155.5 86.8499 154.92C86.7999 154.27 87.0698 153.97 87.7498 153.96C89.1898 153.95 90.6299 153.93 92.0699 153.97C92.7999 153.99 93.2698 153.73 93.6198 153.11C93.8498 152.7 93.7498 152.6 93.3398 152.61C92.3298 152.61 91.3199 152.61 90.3199 152.61C90.1299 152.61 89.9499 152.62 89.7599 152.6C89.2099 152.56 88.8098 152.19 88.8598 151.71C88.9098 151.19 89.2498 150.9 89.7698 150.89C91.0198 150.88 92.2798 150.88 93.5298 150.89C95.0298 150.91 96.4798 150.79 97.9698 150.4C102.34 149.25 106.68 152.37 107.28 156.95C107.87 161.47 104.22 165.61 99.6699 165.57C98.8699 165.56 98.0598 165.49 97.3098 165.18C96.4098 164.83 95.5098 164.73 94.5798 164.77ZM87.7299 157.88C87.7099 157.42 88.1098 156.99 88.5598 156.98C89.0098 156.97 89.4298 157.39 89.4298 157.85C89.4298 158.32 89.0198 158.74 88.5598 158.7C88.0698 158.66 87.7499 158.4 87.7299 157.88ZM116.88 155.68C117.02 157.15 117.03 158.63 116.88 160.1C116.85 160.42 116.7 160.52 116.41 160.52C115.1 160.51 113.78 160.54 112.47 160.5C111.17 160.46 110.04 159.18 110.06 157.85C110.08 156.52 111.19 155.36 112.51 155.32C113.15 155.3 113.78 155.32 114.42 155.32C115.1 155.32 115.77 155.33 116.45 155.32C116.72 155.3 116.85 155.38 116.88 155.68ZM115.35 152.14C115.62 152.34 115.56 152.7 115.62 152.99C115.97 154.65 115.97 154.65 114.28 154.64C113.72 154.64 113.17 154.63 112.61 154.65C110.78 154.71 109.42 156.14 109.43 157.98C109.44 159.7 110.86 161.1 112.65 161.14C113.58 161.16 114.5 161.16 115.43 161.13C115.83 161.12 115.94 161.25 115.86 161.63C115.73 162.21 115.61 162.8 115.52 163.38C115.47 163.7 115.22 163.81 115.01 163.95C112.58 165.5 109.89 166.24 107.06 166.56C104.57 166.84 102.09 166.72 99.6399 166.21C99.4099 166.16 99.1698 166.1 98.9398 166.04C104.31 166.48 108.01 162.03 107.95 157.83C107.9 153.69 104.49 149.52 99.0898 149.77C100.18 149.45 101.14 149.32 102.11 149.24C106.24 148.88 110.23 149.36 113.98 151.26C114.47 151.49 114.91 151.82 115.35 152.14ZM100.91 147.77C103.11 147.07 105.36 146.56 107.68 146.69C109.97 146.82 111.71 147.95 112.83 149.97C112.84 150.02 112.85 150.06 112.86 150.11C112.81 150.1 112.77 150.09 112.72 150.08C111.42 149.7 110.15 149.24 108.81 149.02C104.69 148.32 100.64 148.53 96.6798 149.97C96.4798 150.04 96.2899 150.21 96.0099 150.09C97.5399 149.04 99.1899 148.32 100.91 147.77Z" fill="#2F604A"/>
<path d="M113.19 159.56C114.035 159.56 114.72 158.875 114.72 158.03C114.72 157.185 114.035 156.5 113.19 156.5C112.345 156.5 111.66 157.185 111.66 158.03C111.66 158.875 112.345 159.56 113.19 159.56Z" fill="#2F604A"/>
<path d="M104.57 177.13C99.96 174.64 98.09 174 95.97 173.72C94 173.46 90.94 173.05 87.88 174.54C85.34 175.77 85.31 177.08 81.75 179.09C79.33 180.46 77.3 181 76.88 181.11C75.69 181.42 72.25 182.2 67.97 181.3C65.65 180.81 63.99 180.02 63.1 179.59C60 178.09 60.01 177.24 56.97 175.61C55.38 174.76 53.11 173.57 49.95 173.27C48.96 173.18 46.82 173 44.32 173.78C41.38 174.7 40.93 176.02 37.49 178.08C35.97 178.99 33.35 180.56 29.78 181.18C25.53 181.92 22.09 180.95 20.49 180.48C18.74 179.97 16.12 179.2 13.47 177.13C11.69 175.74 10.83 174.49 9.15001 173.71C8.95001 173.62 8.71002 173.54 8.49002 173.46C7.09002 174.22 5.33002 175.18 3.52002 176.16C3.95002 177.33 4.38002 178.51 4.82002 179.68C4.98002 179.68 5.13002 179.67 5.30002 179.67C6.31002 179.7 7.38002 179.8 8.49002 180.01C10.77 180.45 12.43 181.18 12.79 181.34C16.24 182.89 16.23 184.17 19.55 185.89C20.77 186.52 23.24 187.77 26.57 187.79C28.35 187.8 29.77 187.45 30.55 187.22C32.26 186.71 33.3 186.04 35.35 184.75C39.11 182.39 40.98 181.21 41.42 181.02C45.21 179.33 48.43 179.36 49.2 179.38C50.99 179.43 52.4 179.76 53.18 179.95C54.09 180.17 55.81 180.65 58.17 181.85C61.74 183.66 61.42 184.39 64.3 185.83C65.78 186.57 68.34 187.83 71.76 187.79C74.5 187.76 76.56 186.92 77.51 186.53C79.3 185.78 79.75 185.23 82.12 183.69C85.59 181.44 87.78 180.02 90.84 179.33C91.89 179.09 94.39 178.55 97.41 179.2C98.71 179.48 99.88 180.02 102.21 181.1C104.71 182.26 106.54 183.34 108.09 184.26C109.47 185.08 110.31 185.52 111.31 186.35C112.28 187.14 112.98 187.91 113.45 188.46C113.85 187.68 114.24 186.82 114.62 185.87C114.92 185.12 115.17 184.4 115.38 183.72C111.1 180.79 107.36 178.63 104.57 177.13Z" fill="#FDB637"/>
<path d="M3.5 241.6L0 227.01H3.03L5.24001 237.03L7.92 227.01H11.44L14.01 237.2L16.26 227.01H19.24L15.68 241.6H12.54L9.62 230.7L6.71001 241.6H3.5Z" fill="#2F604A"/>
<path d="M26.52 238.24L29.32 238.71C28.96 239.73 28.39 240.51 27.61 241.04C26.83 241.57 25.86 241.84 24.69 241.84C22.84 241.84 21.48 241.24 20.59 240.04C19.89 239.08 19.54 237.86 19.54 236.4C19.54 234.65 20 233.28 20.92 232.29C21.84 231.3 23 230.8 24.41 230.8C25.99 230.8 27.24 231.32 28.15 232.36C29.06 233.4 29.5 234.99 29.46 237.13H22.42C22.44 237.96 22.67 238.6 23.1 239.06C23.53 239.52 24.07 239.75 24.72 239.75C25.16 239.75 25.53 239.63 25.83 239.39C26.14 239.15 26.37 238.77 26.52 238.24ZM26.68 235.41C26.66 234.6 26.45 233.99 26.05 233.56C25.65 233.14 25.16 232.93 24.59 232.93C23.98 232.93 23.47 233.15 23.07 233.6C22.67 234.04 22.47 234.65 22.48 235.41H26.68Z" fill="#2F604A"/>
<path d="M31.74 241.6V227.01H36.17L38.83 236.96L41.46 227.01H45.9V241.6H43.15V230.12L40.24 241.6H37.39L34.49 230.12V241.6H31.74Z" fill="#FDB637"/>
<path d="M48.1799 236.17C48.1799 235.24 48.4099 234.34 48.8699 233.47C49.3299 232.6 49.9799 231.94 50.8299 231.48C51.6699 231.02 52.6199 230.79 53.6599 230.79C55.2699 230.79 56.5799 231.31 57.6099 232.35C58.6399 233.39 59.1499 234.7 59.1499 236.28C59.1499 237.88 58.6299 239.2 57.5899 240.25C56.5499 241.3 55.25 241.83 53.67 241.83C52.7 241.83 51.7699 241.61 50.8799 241.17C49.9999 240.73 49.3199 240.09 48.8599 239.24C48.4099 238.41 48.1799 237.38 48.1799 236.17ZM51.0599 236.32C51.0599 237.37 51.3099 238.17 51.8099 238.73C52.3099 239.29 52.9299 239.57 53.6599 239.57C54.3899 239.57 55.0099 239.29 55.5099 238.73C56.0099 238.17 56.2599 237.36 56.2599 236.3C56.2599 235.27 56.0099 234.47 55.5099 233.91C55.0099 233.35 54.3999 233.07 53.6599 233.07C52.9299 233.07 52.3099 233.35 51.8099 233.91C51.3099 234.47 51.0599 235.27 51.0599 236.32Z" fill="#FDB637"/>
<path d="M64.26 241.6L59.98 231.03H62.93L64.93 236.42L65.51 238.22C65.66 237.76 65.76 237.46 65.8 237.31C65.89 237.01 65.99 236.71 66.1 236.41L68.12 231.02H71.01L66.79 241.59H64.26V241.6Z" fill="#FDB637"/>
<path d="M78.89 238.24L81.69 238.71C81.33 239.73 80.76 240.51 79.98 241.04C79.2 241.57 78.23 241.84 77.06 241.84C75.21 241.84 73.85 241.24 72.96 240.04C72.26 239.08 71.91 237.86 71.91 236.4C71.91 234.65 72.37 233.28 73.29 232.29C74.21 231.3 75.37 230.8 76.78 230.8C78.36 230.8 79.61 231.32 80.52 232.36C81.43 233.4 81.87 234.99 81.83 237.13H74.79C74.81 237.96 75.04 238.6 75.47 239.06C75.9 239.52 76.44 239.75 77.09 239.75C77.53 239.75 77.9 239.63 78.2 239.39C78.51 239.15 78.74 238.77 78.89 238.24ZM79.05 235.41C79.03 234.6 78.82 233.99 78.42 233.56C78.02 233.14 77.53 232.93 76.96 232.93C76.35 232.93 75.84 233.15 75.44 233.6C75.04 234.04 74.84 234.65 74.85 235.41H79.05Z" fill="#FDB637"/>
<path d="M102.31 241.6H99.09L97.81 238.29H91.95L90.74 241.6H87.6L93.31 227.01H96.44L102.31 241.6ZM96.86 235.83L94.84 230.42L92.86 235.83H96.86Z" fill="#FDB637"/>
<path d="M103.86 241.6V227.01H106.67V241.6H103.86Z" fill="#FDB637"/>
<path d="M109.55 241.6V227.01H112.36V241.6H109.55Z" fill="#FDB637"/>
<path d="M115.24 241.6V238.8H118.05V241.6H115.24Z" fill="#FDB637"/>
<path d="M95.4502 163.59L95.1802 162.47H95.4102L95.5802 163.24L95.7902 162.47H96.0602L96.2602 163.26L96.4302 162.47H96.6602L96.3902 163.59H96.1502L95.9202 162.75L95.7002 163.59H95.4502Z" fill="#2F604A"/>
<path d="M97.2202 163.33L97.4402 163.37C97.4102 163.45 97.3702 163.51 97.3102 163.55C97.2502 163.59 97.1802 163.61 97.0902 163.61C96.9502 163.61 96.8402 163.56 96.7702 163.47C96.7202 163.4 96.6902 163.3 96.6902 163.19C96.6902 163.06 96.7302 162.95 96.8002 162.87C96.8702 162.79 96.9602 162.76 97.0702 162.76C97.1902 162.76 97.2902 162.8 97.3602 162.88C97.4302 162.96 97.4602 163.08 97.4602 163.25H96.9202C96.9202 163.31 96.9402 163.36 96.9702 163.4C97.0002 163.44 97.0502 163.45 97.0902 163.45C97.1202 163.45 97.1502 163.44 97.1802 163.42C97.1902 163.41 97.2102 163.38 97.2202 163.33ZM97.2402 163.12C97.2402 163.06 97.2202 163.01 97.1902 162.98C97.1602 162.95 97.1202 162.93 97.0802 162.93C97.0302 162.93 96.9902 162.95 96.9602 162.98C96.9302 163.01 96.9102 163.06 96.9102 163.12H97.2402Z" fill="#2F604A"/>
<path d="M97.6301 163.59V162.47H97.9701L98.1801 163.24L98.3801 162.47H98.7201V163.59H98.5101V162.71L98.2901 163.59H98.0701L97.8501 162.71V163.59H97.6301Z" fill="#2F604A"/>
<path d="M98.8901 163.18C98.8901 163.11 98.9101 163.04 98.9401 162.97C98.9801 162.9 99.0301 162.85 99.0901 162.82C99.1601 162.78 99.2301 162.77 99.3101 162.77C99.4301 162.77 99.5401 162.81 99.6101 162.89C99.6901 162.97 99.7301 163.07 99.7301 163.19C99.7301 163.31 99.6901 163.42 99.6101 163.5C99.5301 163.58 99.4301 163.62 99.3101 163.62C99.2301 163.62 99.1601 163.6 99.1001 163.57C99.0301 163.54 98.9801 163.49 98.9401 163.42C98.9101 163.35 98.8901 163.27 98.8901 163.18ZM99.1101 163.19C99.1101 163.27 99.1301 163.33 99.1701 163.38C99.2101 163.42 99.2601 163.44 99.3101 163.44C99.3701 163.44 99.4101 163.42 99.4501 163.38C99.4901 163.34 99.5101 163.27 99.5101 163.19C99.5101 163.11 99.4901 163.05 99.4501 163.01C99.4101 162.97 99.3601 162.95 99.3101 162.95C99.2501 162.95 99.2101 162.97 99.1701 163.01C99.1301 163.04 99.1101 163.11 99.1101 163.19Z" fill="#2F604A"/>
<path d="M100.13 163.59L99.8002 162.78H100.03L100.18 163.2L100.22 163.34C100.23 163.3 100.24 163.28 100.24 163.27C100.25 163.25 100.25 163.22 100.26 163.2L100.42 162.78H100.64L100.31 163.59H100.13Z" fill="#2F604A"/>
<path d="M101.26 163.33L101.48 163.37C101.45 163.45 101.41 163.51 101.35 163.55C101.29 163.59 101.22 163.61 101.13 163.61C100.99 163.61 100.88 163.56 100.81 163.47C100.76 163.4 100.73 163.3 100.73 163.19C100.73 163.06 100.77 162.95 100.84 162.87C100.91 162.79 101 162.76 101.11 162.76C101.23 162.76 101.33 162.8 101.4 162.88C101.47 162.96 101.5 163.08 101.5 163.25H100.96C100.96 163.31 100.98 163.36 101.01 163.4C101.04 163.44 101.09 163.45 101.13 163.45C101.16 163.45 101.19 163.44 101.22 163.42C101.23 163.41 101.25 163.38 101.26 163.33ZM101.27 163.12C101.27 163.06 101.25 163.01 101.22 162.98C101.19 162.95 101.15 162.93 101.11 162.93C101.06 162.93 101.02 162.95 100.99 162.98C100.96 163.01 100.94 163.06 100.94 163.12H101.27Z" fill="#2F604A"/>
<path d="M103.06 163.59H102.81L102.71 163.33H102.26L102.17 163.59H101.93L102.37 162.47H102.61L103.06 163.59ZM102.64 163.15L102.48 162.73L102.33 163.15H102.64Z" fill="#2F604A"/>
<path d="M103.18 163.59V162.47H103.4V163.59H103.18Z" fill="#2F604A"/>
<path d="M103.62 163.59V162.47H103.84V163.59H103.62Z" fill="#2F604A"/>
<path d="M104.06 163.59V163.37H104.28V163.59H104.06Z" fill="#2F604A"/>
</svg>
