<svg width="23" height="23" viewBox="0 0 23 23" fill="none" xmlns="http://www.w3.org/2000/svg">
<g clip-path="url(#clip0_1078_4197)">
<path d="M8.98438 0H1.79688C0.806078 0 0 0.806078 0 1.79688V11.8594C0 12.8502 0.806078 13.6562 1.79688 13.6562H8.98438C9.97517 13.6562 10.7812 12.8502 10.7812 11.8594V1.79688C10.7812 0.806078 9.97517 0 8.98438 0ZM10.0625 11.8594C10.0625 12.4538 9.57887 12.9375 8.98438 12.9375H1.79688C1.20238 12.9375 0.71875 12.4538 0.71875 11.8594V1.79688C0.71875 1.20242 1.20238 0.71875 1.79688 0.71875H8.98438C9.57887 0.71875 10.0625 1.20242 10.0625 1.79688V11.8594ZM8.98438 15.0938H1.79688C0.806078 15.0938 0 15.8998 0 16.8906V21.2031C0 22.1939 0.806078 23 1.79688 23H8.98438C9.97517 23 10.7812 22.1939 10.7812 21.2031V16.8906C10.7812 15.8998 9.97517 15.0938 8.98438 15.0938ZM10.0625 21.2031C10.0625 21.7976 9.57887 22.2812 8.98438 22.2812H1.79688C1.20238 22.2812 0.71875 21.7976 0.71875 21.2031V16.8906C0.71875 16.2962 1.20238 15.8125 1.79688 15.8125H8.98438C9.57887 15.8125 10.0625 16.2962 10.0625 16.8906V21.2031ZM23 21.2031V11.1406C23 10.1498 22.1939 9.34375 21.2031 9.34375H14.0156C13.0248 9.34375 12.2188 10.1498 12.2188 11.1406V21.2031C12.2188 22.1939 13.0248 23 14.0156 23H21.2031C22.1939 23 23 22.1939 23 21.2031ZM22.2812 21.2031C22.2812 21.7976 21.7976 22.2812 21.2031 22.2812H14.0156C13.4211 22.2812 12.9375 21.7976 12.9375 21.2031V11.1406C12.9375 10.5462 13.4211 10.0625 14.0156 10.0625H21.2031C21.7976 10.0625 22.2812 10.5462 22.2812 11.1406V21.2031ZM23 6.10938V1.79688C23 0.806078 22.1939 0 21.2031 0H14.0156C13.0248 0 12.2188 0.806078 12.2188 1.79688V6.10938C12.2188 7.10017 13.0248 7.90625 14.0156 7.90625H21.2031C22.1939 7.90625 23 7.10017 23 6.10938ZM22.2812 6.10938C22.2812 6.70383 21.7976 7.1875 21.2031 7.1875H14.0156C13.4211 7.1875 12.9375 6.70383 12.9375 6.10938V1.79688C12.9375 1.20242 13.4211 0.71875 14.0156 0.71875H21.2031C21.7976 0.71875 22.2812 1.20242 22.2812 1.79688V6.10938Z" fill="black"/>
</g>
<defs>
<clipPath id="clip0_1078_4197">
<rect width="23" height="23" fill="white"/>
</clipPath>
</defs>
</svg>
